<?xml version="1.0" standalone="no"?>
<!DOCTYPE svg PUBLIC "-//W3C//DTD SVG 20010904//EN"
 "http://www.w3.org/TR/2001/REC-SVG-20010904/DTD/svg10.dtd">
<svg version="1.0" xmlns="http://www.w3.org/2000/svg"
 width="1024.000000pt" height="1024.000000pt" viewBox="0 0 1024.000000 1024.000000"
 preserveAspectRatio="xMidYMid meet">
<metadata>
Created by potrace 1.11, written by Peter Selinger 2001-2013
</metadata>
<g transform="translate(0.000000,1024.000000) scale(0.100000,-0.100000)"
fill="#000000" stroke="none">
<path d="M4908 9995 c-2 -1 -55 -6 -118 -9 -63 -4 -131 -9 -150 -11 -302 -37
-507 -75 -745 -136 -82 -21 -448 -137 -475 -150 -8 -4 -69 -28 -135 -54 -337
-133 -758 -369 -1060 -594 -64 -48 -253 -200 -295 -237 -144 -127 -327 -307
-425 -418 -33 -37 -67 -75 -75 -84 -38 -40 -154 -186 -232 -292 -307 -414
-542 -868 -709 -1370 -43 -129 -138 -488 -154 -580 -3 -19 -8 -46 -10 -60 -2
-14 -11 -65 -19 -115 -23 -136 -45 -326 -53 -455 -17 -268 -4 -764 23 -920 2
-14 6 -45 9 -70 3 -25 8 -54 10 -65 2 -11 7 -42 10 -70 6 -41 41 -229 60 -320
30 -140 162 -565 215 -690 5 -11 32 -76 61 -145 148 -352 390 -761 639 -1080
197 -251 418 -481 699 -726 36 -31 217 -174 262 -207 100 -72 165 -117 171
-117 3 0 13 -6 21 -14 33 -34 367 -225 542 -311 200 -99 351 -162 575 -240
247 -86 597 -172 810 -200 14 -2 40 -6 58 -10 17 -3 49 -8 70 -11 20 -2 53 -6
72 -9 91 -12 123 -15 230 -22 207 -13 756 -6 847 12 10 1 47 6 83 10 36 4 67
9 70 10 3 2 35 7 70 10 36 4 67 8 70 10 3 2 30 6 60 10 30 4 57 8 60 10 3 2
25 6 49 10 82 12 465 113 581 153 306 105 659 260 855 376 33 20 67 39 75 43
49 23 387 245 430 281 8 7 75 60 149 118 74 58 140 111 147 117 7 7 45 41 85
77 94 83 292 283 366 368 32 36 71 79 86 96 48 52 208 261 294 384 99 140 243
379 339 562 10 19 19 37 19 40 1 3 24 54 53 113 29 60 72 161 97 225 25 64 50
126 55 137 16 36 71 198 95 285 14 47 30 99 35 117 6 18 13 40 15 50 2 10 17
74 34 143 16 69 33 141 36 160 3 19 8 42 10 50 2 8 6 35 9 60 3 25 8 54 10 65
12 63 19 110 31 210 4 33 9 74 11 90 25 199 25 719 -1 975 -11 115 -17 165
-20 170 -2 3 -6 34 -10 70 -4 36 -8 67 -10 70 -2 3 -6 26 -10 50 -3 25 -8 52
-10 60 -3 8 -7 32 -9 53 -5 39 -46 213 -71 302 -8 28 -24 85 -35 129 -21 76
-90 279 -144 419 -65 173 -196 447 -283 595 -24 41 -43 76 -43 78 0 2 -41 68
-91 146 -265 415 -585 787 -933 1083 -32 28 -64 56 -71 62 -90 85 -370 284
-620 440 -190 118 -506 272 -740 359 -66 25 -129 49 -140 54 -61 27 -376 118
-535 156 -81 19 -230 46 -345 64 -77 11 -150 23 -163 25 -12 2 -55 6 -95 10
-40 3 -94 8 -122 11 -55 5 -602 14 -607 9z"/>
</g>
</svg>
